<svg width="64" height="65" viewBox="0 0 64 65" fill="none" xmlns="http://www.w3.org/2000/svg">
<g clip-path="url(#clip0_6063_4595)">
<path d="M48.5308 29.4743V24.81C48.5308 21.0775 48.5308 17.3475 48.5308 13.615C48.5308 12.6206 48.4564 11.8037 48.3002 11.0492C47.8416 8.84816 46.6441 7.05186 44.7426 5.71026C43.275 4.67595 41.5693 4.15131 39.6678 4.15131H39.6604C35.6367 4.15131 31.6105 4.15131 27.5869 4.15131H23.8706C22.8963 4.15131 22.0162 4.27872 21.1807 4.54105C18.7611 5.30303 16.981 6.78954 15.8927 8.95809C15.2456 10.2422 14.9333 11.6638 14.9333 13.3052C14.9357 17.9121 14.9357 22.519 14.9357 27.1259V32.1526V36.9344C14.9357 41.6112 14.9357 46.2856 14.9308 50.9625C14.9308 52.1292 15.1068 53.2459 15.4564 54.2827C16.0861 56.1565 17.2364 57.6405 18.8751 58.6923C20.38 59.6591 22.041 60.1513 23.8186 60.1513H23.8384C27.2968 60.1438 30.7528 60.1438 34.2087 60.1463C36.0036 60.1463 37.7985 60.1463 39.5934 60.1463H39.6529C39.9678 60.1463 40.295 60.1463 40.6223 60.1063C42.0081 59.9414 43.2626 59.5142 44.3534 58.8422C46.426 57.563 47.7523 55.6843 48.3002 53.2584C48.4936 52.4015 48.5333 51.5571 48.5333 50.5502V29.4718L48.5308 29.4743ZM18.2206 13.0953C18.2206 12.0085 18.4512 11.0692 18.9297 10.2272C19.252 9.65762 19.7056 9.20292 20.1073 8.83067C21.0915 7.91628 22.2691 7.47158 23.702 7.47158H27.8199C31.8362 7.47408 35.8524 7.47658 39.8686 7.47158H39.8761C42.4569 7.47158 44.7302 9.41278 45.1691 11.9911C45.2137 12.2584 45.2385 12.5482 45.2385 12.848C45.2434 22.7489 45.2434 32.6497 45.2459 42.5506V46.1457H18.2231C18.2231 46.0058 18.2231 45.8659 18.2231 45.7285V38.4159C18.2231 29.9765 18.2231 21.5372 18.2231 13.0978L18.2206 13.0953ZM45.2335 49.481C45.2335 49.6583 45.2335 49.8382 45.2335 50.0156C45.2335 50.6477 45.2285 51.2997 45.2013 51.9393C45.1591 52.8737 44.817 53.7806 44.1799 54.6325C43.332 55.7692 42.2189 56.4788 40.8702 56.7361C40.4215 56.8235 39.9356 56.8335 39.5191 56.836C36.5887 56.836 33.6608 56.836 30.7329 56.831L26.6622 56.826C26.2308 56.826 25.8044 56.826 25.3755 56.831C24.7631 56.8335 24.1483 56.8385 23.5359 56.831C22.2641 56.821 21.146 56.3838 20.1172 55.4944C19.1602 54.6675 18.5751 53.6656 18.3248 52.434C18.2702 52.1592 18.238 51.8968 18.2355 51.652C18.2256 51.0749 18.2281 50.4878 18.2281 49.9207V49.481H45.2385H45.2335Z" fill="#0073E6"/>
<path d="M29.2208 54.4451C29.5406 54.6575 29.91 54.7674 30.3215 54.7724C30.6562 54.7749 30.9909 54.7749 31.3256 54.7724H31.752C31.752 54.7724 31.7545 54.7724 31.7569 54.7724C31.9082 54.7724 32.0569 54.7724 32.2082 54.7749C32.3594 54.7749 32.5131 54.7774 32.6668 54.7774C32.8651 54.7774 33.0659 54.7749 33.2668 54.7649C34.0254 54.7274 34.5906 54.3527 34.8608 53.7131C35.0716 53.2134 35.0195 52.6188 34.727 52.1591C34.4344 51.6995 33.9386 51.4396 33.3362 51.4221C32.2577 51.3947 31.1942 51.4096 30.1951 51.4246C29.8951 51.4296 29.5951 51.5021 29.3472 51.627C28.8514 51.8793 28.5365 52.379 28.5018 52.9611C28.4671 53.5557 28.7448 54.1203 29.2208 54.4401V54.4451Z" fill="#0073E6"/>
<path d="M24.5103 40.7268H38.9464C40.5603 40.7268 41.8718 39.4027 41.8718 37.7788V21.802C41.8718 21.2524 41.7206 20.7152 41.433 20.2505L38.277 15.114C37.7391 14.2396 36.8094 13.7174 35.788 13.7174H24.5078C22.8939 13.7174 21.5824 15.0415 21.5824 16.6654V37.7788C21.5824 39.4052 22.8963 40.7268 24.5078 40.7268H24.5103ZM24.5599 16.7129H35.7632L38.8968 21.8145V37.7288H24.5574V16.7129H24.5599Z" fill="#0073E6"/>
<path d="M34.846 26.7512H28.6208C27.8002 26.7512 27.1333 27.4232 27.1333 28.2502C27.1333 29.0771 27.8002 29.7492 28.6208 29.7492H34.846C35.6666 29.7492 36.3334 29.0771 36.3334 28.2502C36.3334 27.4232 35.6666 26.7512 34.846 26.7512Z" fill="#0073E6"/>
<path d="M34.846 31.3106H28.6208C27.8002 31.3106 27.1333 31.9827 27.1333 32.8096C27.1333 33.6366 27.8002 34.3086 28.6208 34.3086H34.846C35.6666 34.3086 36.3334 33.6366 36.3334 32.8096C36.3334 31.9827 35.6666 31.3106 34.846 31.3106Z" fill="#0073E6"/>
</g>
<defs>
<clipPath id="clip0_6063_4595">
<rect width="33.6" height="56" fill="white" transform="translate(14.9333 4.15131)"/>
</clipPath>
</defs>
</svg>
