<svg width="64" height="65" viewBox="0 0 64 65" fill="none" xmlns="http://www.w3.org/2000/svg">
<path d="M63.7326 17.3405C63.4707 16.3464 62.8931 15.4511 62.015 14.6739C61.2506 13.9976 60.3575 13.5832 59.2861 13.405C58.6656 13.3019 58.0902 13.3449 57.5062 13.405C56.6731 13.4887 55.9067 13.7721 55.1616 14.2767C54.6485 14.6224 54.2255 15.0475 53.8154 15.4597C53.6866 15.5885 53.5557 15.7195 53.4247 15.8462C52.7076 16.5354 51.9991 17.2439 51.4022 17.8451L50.7259 18.5235C50.0367 19.2149 49.3453 19.9084 48.6604 20.604C48.1645 21.1085 47.662 21.6088 47.1575 22.1069C46.8698 22.3925 46.5842 22.6759 46.2987 22.9614C46.069 23.1912 45.8349 23.4231 45.603 23.6528C45.3862 23.8653 45.1672 24.0779 44.9482 24.2883C44.4136 24.8036 43.8618 25.3361 43.3465 25.9007C43.1382 26.1305 42.9064 26.3409 42.6595 26.5642C42.5457 26.6694 42.4297 26.7724 42.3052 26.8927L39.4067 29.8534C38.7626 30.4095 38.1657 31.0171 37.5903 31.6075C37.2683 31.936 36.9376 32.2753 36.6027 32.5973C35.7245 33.4476 34.8507 34.3257 34.0048 35.1759C33.5775 35.6075 33.1481 36.0369 32.7187 36.4663C32.3966 36.7862 32.0767 37.1061 31.7568 37.4282C30.8465 38.3406 29.9039 39.2853 28.9549 40.1871C28.3194 40.7883 28.0596 41.5118 27.875 42.201C27.7633 42.6175 27.6452 43.0341 27.5272 43.4506L27.3468 44.0904C27.3125 44.2106 27.2781 44.3309 27.2416 44.4511C27.1557 44.7431 27.0655 45.0458 27.0011 45.3572C26.926 45.7222 26.8165 46.0764 26.7027 46.45C26.6555 46.6046 26.6082 46.757 26.5631 46.9116C26.5138 47.0769 26.4622 47.2444 26.4086 47.4097C26.3162 47.6996 26.2196 47.9959 26.1445 48.3179C26.0672 48.3179 25.9899 48.3136 25.9126 48.3115C25.6378 48.3007 25.3522 48.29 25.0581 48.3394C24.852 48.3737 24.7403 48.3523 24.5879 47.9959C24.283 47.2852 23.9223 46.5981 23.5723 45.9326C23.4242 45.6492 23.2739 45.3636 23.13 45.078C23.0162 44.8547 22.9991 44.7173 23.1794 44.4425L23.2266 44.3695C23.7398 43.5901 24.2701 42.785 24.6201 41.8575C24.824 41.3186 25.0516 40.6723 25.1976 39.981C25.4703 38.6842 25.4295 37.688 25.0602 36.7518C24.9142 36.3804 24.6952 36.082 24.4848 35.7921L24.4225 35.7084C23.9695 35.0836 23.2739 34.6327 22.4129 34.4051C21.8976 34.2677 21.363 34.2463 20.8263 34.3386C19.8923 34.4996 19.1215 34.9397 18.5375 35.6483C17.7431 36.6101 17.3867 37.7481 17.5026 38.944C17.6486 40.4469 17.9943 41.7351 18.559 42.8795L18.5998 42.9632C18.8725 43.5171 19.1451 44.0689 19.4242 44.6186C18.6449 45.8488 17.8913 47.049 17.1849 48.1912C17.1205 48.2964 17.0689 48.3244 16.9423 48.3222C16.7512 48.3201 16.5601 48.3222 16.369 48.3222C16.165 48.3222 15.9611 48.3222 15.7571 48.3201C15.682 48.3201 15.639 48.3136 15.6133 48.3072C15.6111 48.2943 15.6068 48.2771 15.6025 48.2535C15.5467 47.8585 15.4479 47.4806 15.3513 47.1156C15.2891 46.8815 15.2311 46.6626 15.1839 46.4371C14.9391 45.282 14.3444 44.4575 13.4168 43.9873C12.2381 43.3883 11.3127 43.4806 10.2199 44.3008C9.39115 44.9213 9.13565 45.8596 8.91022 46.6862L8.8866 46.7699C8.83507 46.961 8.79642 47.1521 8.75992 47.3346C8.7041 47.6223 8.65042 47.895 8.54522 48.1419L8.51087 48.2256C8.49799 48.2557 8.4851 48.2879 8.47222 48.3179C8.42928 48.3179 8.3799 48.3201 8.34769 48.3222C8.1609 48.3244 7.97411 48.3244 7.78517 48.3222H7.54255H6.96286C6.42824 48.3222 5.89363 48.3222 5.35902 48.3222C5.2624 48.3222 4.98973 48.3201 4.79435 48.5176C4.66768 48.6443 4.60541 48.816 4.6097 49.0264C4.61615 49.4344 4.61615 49.8402 4.61829 50.2481V50.7677C4.62044 51.0124 4.69773 51.2078 4.84373 51.3474C4.9425 51.4419 5.12285 51.5492 5.4084 51.5363C5.85498 51.5127 6.3166 51.5191 6.76318 51.5256C7.48888 51.5363 8.24034 51.5449 8.99824 51.4376C10.119 51.2787 10.9284 50.6195 11.4029 49.4773C11.6563 48.8676 11.8474 48.1569 11.9719 47.3668C11.9955 47.2165 12.0234 47.0877 12.0535 46.9782L12.1072 47.1864C12.2703 47.8348 12.4399 48.5069 12.631 49.1638C12.9488 50.2567 13.7024 51.0404 14.7544 51.3667C15.1989 51.5063 15.6884 51.575 16.2015 51.575C16.5193 51.575 16.8457 51.5492 17.1763 51.4955C17.2579 51.4826 17.3416 51.4741 17.4254 51.4633C17.6787 51.4354 17.9643 51.4032 18.2563 51.2701C19.027 50.9137 19.6261 50.3383 19.9868 49.6083C20.0984 49.385 20.2294 49.1703 20.3689 48.9449C20.487 48.7538 20.6094 48.5562 20.7189 48.348C20.822 48.1547 20.9207 47.9765 21.0324 47.8198C21.1226 48.0023 21.2127 48.187 21.3008 48.3737C21.5777 48.9534 21.8654 49.5525 22.2347 50.1128C22.6813 50.7892 23.319 51.2164 24.1864 51.4139C24.7274 51.5385 25.2577 51.5363 25.7709 51.532C25.9748 51.532 26.1767 51.5299 26.3785 51.5363C27.3039 51.5707 28.1691 51.3152 28.8927 51.0618C29.3736 50.8944 29.8803 50.7591 30.372 50.6281C30.7735 50.5208 31.19 50.4113 31.5979 50.2803C31.9651 50.1622 32.3515 50.0613 32.7251 49.9647C32.957 49.9046 33.1889 49.8445 33.4208 49.7779C33.7707 49.6791 34.1186 49.5782 34.4664 49.4773C34.8464 49.3678 35.2243 49.2583 35.6043 49.151C36.0767 49.02 36.4395 48.8117 36.7465 48.4983C37.6826 47.545 38.6488 46.5874 39.5828 45.662L39.733 45.5139C39.8619 45.3872 40.0057 45.2627 40.1453 45.1425C40.214 45.0845 40.2805 45.0265 40.3621 44.9535L42.9343 42.4372L42.9686 42.3577C43.0567 42.1495 43.2757 41.9498 43.5075 41.7394C43.5999 41.6557 43.6922 41.5698 43.7781 41.4839C48.274 36.988 52.7741 32.4943 57.2722 28.0027C57.3516 27.9232 57.4353 27.8481 57.5212 27.7751C57.5964 27.7085 57.6694 27.642 57.7424 27.5733C57.7939 27.6184 57.8433 27.672 57.8884 27.7322C58.6656 28.7498 58.6849 30.1068 57.9356 31.1073C57.5985 31.556 57.1992 31.9511 56.817 32.3118C56.583 32.5308 56.3575 32.7605 56.1385 32.9838C56.0484 33.0761 55.9582 33.1684 55.8659 33.2586C55.7478 33.3789 55.6318 33.5012 55.5159 33.6236C55.2647 33.8898 55.0285 34.141 54.7666 34.3493C54.4875 34.5726 54.2599 34.8238 54.0409 35.0686C53.8799 35.2468 53.7274 35.4164 53.5621 35.5667C53.3452 35.7642 53.1413 35.9746 52.9438 36.1786C52.7398 36.389 52.5466 36.5887 52.3404 36.7755L52.0034 37.0803L54.2191 39.281L54.5218 38.9547C54.8718 38.5768 55.2626 38.2118 55.6383 37.8597C55.8938 37.6214 56.1579 37.3745 56.4112 37.1211C56.8234 36.7089 57.2335 36.2945 57.6415 35.878C58.1761 35.3327 58.73 34.768 59.284 34.2269C60.0934 33.4368 60.9114 32.5651 61.2764 31.3521C61.4997 30.6092 61.7251 29.7396 61.5727 28.7928C61.3472 27.3972 60.8234 26.2829 59.971 25.3876C59.9603 25.3769 59.9517 25.3683 59.9409 25.3575L60.3532 24.9432C60.8663 24.4279 61.3773 23.9169 61.8862 23.4037C61.957 23.3329 62.0279 23.262 62.1009 23.1912C62.3134 22.9829 62.5324 22.7682 62.7278 22.5234C63.344 21.7441 63.7433 20.8058 63.9473 19.6507C64.089 18.8456 63.9215 18.0941 63.7197 17.3341L63.7326 17.3405ZM32.4954 46.7849C32.0832 46.8773 31.6924 46.9739 31.321 47.1306C31.0805 47.2315 30.8186 47.2873 30.5394 47.3453C30.2303 47.4097 29.9125 47.4763 29.5969 47.6137C29.6398 47.457 29.6806 47.3002 29.7214 47.1435C29.9318 46.3512 30.1465 45.5375 30.4149 44.7238C30.7305 45.0265 31.0376 45.3357 31.3553 45.6577C31.7225 46.0292 32.096 46.4071 32.4954 46.7828V46.7849ZM55.5481 25.3919L35.6129 45.3271L31.862 41.7115L32.4117 41.1576C33.0558 40.507 33.687 39.8715 34.3182 39.2381L35.2028 38.3492C36.2634 37.2843 37.3241 36.2194 38.3912 35.1587C39.4174 34.1389 40.4459 33.1234 41.4764 32.1057C42.2966 31.2962 43.1146 30.4868 43.9326 29.6752C44.3084 29.3016 44.6798 28.9259 45.0513 28.548C45.311 28.2839 45.5708 28.0199 45.8328 27.7579C46.5542 27.0344 47.2756 26.3151 47.9991 25.5959C48.9481 24.6533 49.8971 23.7108 50.8483 22.7682L51.8316 21.7935L51.8853 21.7419C51.8853 21.7419 51.896 21.7312 51.9024 21.7269C52.2546 22.0833 52.611 22.4376 52.9652 22.7918L53.4784 23.3028C53.809 23.6335 54.1397 23.9641 54.4682 24.2947C54.8095 24.6383 55.1488 24.9839 55.4901 25.3296L55.5503 25.3919H55.5481ZM54.5433 20.0114C54.3994 19.8654 54.2577 19.713 54.1096 19.5519C54.8224 18.7833 55.5073 18.0576 56.2545 17.3985C56.3532 17.3104 56.437 17.2203 56.5164 17.1322C56.5873 17.0528 56.656 16.9777 56.7225 16.9218C56.9931 16.6964 57.3344 16.5611 57.7381 16.5225C58.2276 16.4752 58.8009 16.4516 59.3376 16.6384C59.898 16.8338 60.3188 17.2568 60.6215 17.9309C61.1068 19.0087 60.9157 19.9878 60.0376 20.9196C59.6124 21.3705 59.1573 21.8128 58.715 22.24C58.3972 22.5471 58.0687 22.8648 57.7531 23.1869L57.4847 22.9314C57.1906 22.6544 56.8857 22.3689 56.598 22.0812C55.9346 21.422 55.3033 20.7801 54.5476 20.0093L54.5433 20.0114ZM20.7189 38.5339C20.7189 38.4094 20.7189 38.2848 20.7189 38.1624C20.7253 37.7996 20.9615 37.5183 21.305 37.4604C21.3566 37.4518 21.406 37.4475 21.4532 37.4475C21.786 37.4475 22.0651 37.6472 22.1832 37.9821C22.2283 38.1088 22.2454 38.2032 22.239 38.2913C22.1703 39.2274 22.0608 40.2129 21.5842 41.0846C21.5305 41.1833 21.4811 41.2821 21.4296 41.3851C21.4103 41.4259 21.3888 41.4646 21.3695 41.5054C21.3437 41.4474 21.3158 41.3916 21.29 41.3379C21.2278 41.2069 21.1698 41.0846 21.1247 40.9643C20.8735 40.2859 20.6824 39.719 20.7125 39.1114C20.7211 38.9161 20.7211 38.725 20.7189 38.5382V38.5339Z" fill="#0073E6"/>
<path d="M2.92646 48.509C2.80193 48.3823 2.62158 48.3222 2.41976 48.3222C1.84006 48.3286 1.26251 48.3286 0.682811 48.3243H0.67637C0.472401 48.3243 0.30708 48.3866 0.184699 48.509C0.0601707 48.6335 -0.00209335 48.8053 5.36858e-05 49.0178C0.00434775 49.5503 0.00649479 50.1815 5.36858e-05 50.8106C5.36858e-05 50.8965 -0.00424038 51.1606 0.19114 51.3538C0.315668 51.4783 0.487431 51.5406 0.699987 51.5406C0.706428 51.5406 0.715016 51.5406 0.721457 51.5406C1.35483 51.5277 1.883 51.5256 2.38541 51.5363C2.60441 51.5427 2.78905 51.4783 2.92002 51.3473C3.1154 51.152 3.11111 50.8879 3.10896 50.802C3.10467 50.6023 3.10681 50.4026 3.10681 50.203V49.941V49.6727C3.10681 49.4558 3.10467 49.2368 3.10896 49.02C3.1154 48.8074 3.05314 48.6356 2.93076 48.509H2.92646Z" fill="#0073E6"/>
</svg>
