<svg width="61" height="61" viewBox="0 0 61 61" fill="none" xmlns="http://www.w3.org/2000/svg">
<path d="M56.3633 29.7852L44.1992 25.6836C43.9297 25.5898 43.625 25.5898 43.3438 25.6836L31.1797 29.7969C30.6289 29.9844 30.2656 30.4883 30.2656 31.0625V40.3086C30.2656 51.3125 42.7227 56.7266 43.25 56.9492C43.4141 57.0195 43.5898 57.0547 43.7656 57.0547C43.9414 57.0547 44.1172 57.0195 44.2813 56.9492C44.8086 56.7266 57.2656 51.3125 57.2656 40.3086V31.0625C57.2773 30.4766 56.9141 29.9609 56.3633 29.7852ZM54.5938 32.0117V40.2852C54.5938 48.418 45.8047 53.2109 43.7656 54.207C42.6406 53.6562 40.0156 52.2383 37.6133 49.9648C34.5078 47.0234 32.9375 43.7656 32.9375 40.2852V32.0117L43.7656 28.3555L54.5938 32.0117Z" fill="white"/>
<path d="M39.2891 38.2695C38.832 37.6953 37.9883 37.6016 37.4023 38.0586C36.8281 38.5156 36.7344 39.3594 37.1914 39.9453L41.6094 45.4766C41.8437 45.7695 42.1953 45.957 42.582 45.9805C42.6055 45.9805 42.6406 45.9805 42.664 45.9805C43.0156 45.9805 43.3672 45.8398 43.6133 45.582L51.3594 37.8359C51.6172 37.5781 51.7461 37.25 51.7461 36.8867C51.7461 36.5234 51.6055 36.1953 51.3594 35.9375C51.1133 35.6797 50.7734 35.5508 50.4101 35.5508C50.0469 35.5508 49.7187 35.6914 49.4609 35.9375L42.7812 42.6172L39.2891 38.2695Z" fill="white"/>
<path d="M13.9063 17.2227C15.8633 17.2227 17.457 15.6289 17.457 13.6719C17.457 11.7148 15.8633 10.1211 13.9063 10.1211C11.9492 10.1211 10.3555 11.7148 10.3555 13.6719C10.3555 15.6289 11.9492 17.2227 13.9063 17.2227ZM13.9063 12.8047C14.3867 12.8047 14.7734 13.1914 14.7734 13.6719C14.7734 14.1523 14.3867 14.5391 13.9063 14.5391C13.4258 14.5391 13.0391 14.1523 13.0391 13.6719C13.0391 13.1914 13.4258 12.8047 13.9063 12.8047Z" fill="white"/>
<path d="M24.9688 17.2227C26.9258 17.2227 28.5195 15.6289 28.5195 13.6719C28.5195 11.7148 26.9258 10.1211 24.9688 10.1211C23.0117 10.1211 21.418 11.7148 21.418 13.6719C21.418 15.6289 23.0117 17.2227 24.9688 17.2227ZM24.9688 12.8047C25.4492 12.8047 25.8359 13.1914 25.8359 13.6719C25.8359 14.1523 25.4492 14.5391 24.9688 14.5391C24.4883 14.5391 24.1016 14.1523 24.1016 13.6719C24.1016 13.1914 24.4883 12.8047 24.9688 12.8047Z" fill="white"/>
<path d="M10.3555 26.9375C10.3555 28.8945 11.9492 30.4883 13.9063 30.4883C15.8633 30.4883 17.457 28.8945 17.457 26.9375C17.457 24.9805 15.8633 23.3867 13.9063 23.3867C11.9492 23.3867 10.3555 24.9805 10.3555 26.9375ZM13.9063 27.8164C13.4258 27.8164 13.0391 27.4297 13.0391 26.9492C13.0391 26.4687 13.4258 26.082 13.9063 26.082C14.3867 26.082 14.7734 26.4687 14.7734 26.9492C14.7734 27.4297 14.3867 27.8164 13.9063 27.8164Z" fill="white"/>
<path d="M24.9688 23.3867C23.0117 23.3867 21.418 24.9805 21.418 26.9375C21.418 28.8945 23.0117 30.4883 24.9688 30.4883C26.9258 30.4883 28.5195 28.8945 28.5195 26.9375C28.5195 24.9805 26.9258 23.3867 24.9688 23.3867ZM24.9688 27.8164C24.4883 27.8164 24.1016 27.4297 24.1016 26.9492C24.1016 26.4687 24.4883 26.082 24.9688 26.082C25.4492 26.082 25.8359 26.4687 25.8359 26.9492C25.8359 27.4297 25.4492 27.8164 24.9688 27.8164Z" fill="white"/>
<path d="M24.9687 45.5117H11.7031C8.78516 45.5117 6.40625 43.1328 6.40625 40.2148C6.40625 38.7969 6.95703 37.4727 7.95312 36.4766C8.96094 35.4805 10.2852 34.918 11.6914 34.918H24.957C25.6953 34.918 26.293 34.3203 26.293 33.582C26.293 32.8437 25.6953 32.2461 24.957 32.2461H11.7031C8.78516 32.2461 6.40625 29.8672 6.40625 26.9492C6.40625 25.5312 6.95703 24.207 7.95312 23.2109C8.96094 22.2148 10.2852 21.6523 11.6914 21.6523H44.8672C46.0508 21.6523 47.1523 22.0273 48.0664 22.7422C48.6523 23.1992 49.4961 23.0938 49.9531 22.5078C50.4102 21.9219 50.3047 21.0781 49.7188 20.6211C49.5781 20.5156 49.4375 20.4102 49.2852 20.3047C51.4883 18.8281 52.8477 16.3203 52.8477 13.6719C52.8477 9.27734 49.2734 5.69141 44.8672 5.69141H11.7031C7.30859 5.69141 3.72266 9.26563 3.72266 13.6719C3.72266 16.3203 5.07031 18.8281 7.27344 20.3047C6.83984 20.5977 6.42969 20.9258 6.05469 21.3008C4.54297 22.8125 3.71094 24.8164 3.71094 26.9375C3.71094 29.5859 5.05859 32.0938 7.26172 33.5703C6.82812 33.8633 6.41797 34.1914 6.04297 34.5664C4.53125 36.0781 3.69922 38.082 3.69922 40.2031C3.69922 44.5977 7.27344 48.1836 11.6797 48.1836H24.9453C25.6836 48.1836 26.2812 47.5859 26.2812 46.8477C26.2812 46.1094 25.707 45.5117 24.9687 45.5117ZM11.7031 8.375H44.8789C47.7969 8.375 50.1758 10.7539 50.1758 13.6719C50.1758 16.5898 47.7969 18.9688 44.8789 18.9688H11.7031C8.78516 18.9688 6.40625 16.5898 6.40625 13.6719C6.40625 10.7539 8.77344 8.375 11.7031 8.375Z" fill="white"/>
<path d="M10.3555 40.2148C10.3555 42.1719 11.9492 43.7656 13.9063 43.7656C15.8633 43.7656 17.457 42.1719 17.457 40.2148C17.457 38.2578 15.8633 36.6641 13.9063 36.6641C11.9492 36.6641 10.3555 38.2578 10.3555 40.2148ZM13.9063 41.082C13.4258 41.082 13.0391 40.6953 13.0391 40.2148C13.0391 39.7344 13.4258 39.3477 13.9063 39.3477C14.3867 39.3477 14.7734 39.7344 14.7734 40.2148C14.7734 40.6953 14.3867 41.082 13.9063 41.082Z" fill="white"/>
<path d="M24.9688 36.6641C23.0117 36.6641 21.418 38.2578 21.418 40.2148C21.418 42.1719 23.0117 43.7656 24.9688 43.7656C26.9258 43.7656 28.5195 42.1719 28.5195 40.2148C28.5195 38.2578 26.9258 36.6641 24.9688 36.6641ZM24.9688 41.082C24.4883 41.082 24.1016 40.6953 24.1016 40.2148C24.1016 39.7344 24.4883 39.3477 24.9688 39.3477C25.4492 39.3477 25.8359 39.7344 25.8359 40.2148C25.8359 40.6953 25.4492 41.082 24.9688 41.082Z" fill="white"/>
</svg>
