<svg width="61" height="61" viewBox="0 0 61 61" fill="none" xmlns="http://www.w3.org/2000/svg">
<path d="M41.5466 40.0999C41.2472 39.9355 40.9522 39.7982 40.6775 39.6203C39.9638 39.152 39.4797 38.5058 39.1848 37.7133C39.1105 37.5129 39.0204 37.3148 39.0114 37.0964C39.0069 36.9748 38.9438 36.9365 38.8313 36.941C38.6534 36.9478 38.4755 36.959 38.2999 36.95C36.654 36.8667 35.4878 36.0629 34.7808 34.5837C34.6592 34.3315 34.5691 34.0658 34.4948 33.7956C34.4476 33.6223 34.4453 33.6223 34.2742 33.6313C33.8441 33.6515 33.4164 33.674 32.9908 33.5795C32.8805 33.5547 32.7769 33.5209 32.6711 33.4782C32.5383 33.4241 32.5067 33.4421 32.4797 33.5795C32.4257 33.8542 32.3852 34.1311 32.3266 34.4058C32.0519 35.6914 31.5183 36.869 30.7911 37.9564C30.0886 39.0101 29.206 39.8882 28.1275 40.5637C27.8258 40.7528 27.5084 40.8609 27.1481 40.8339C26.7654 40.8046 26.4682 40.629 26.2813 40.298C25.9391 39.6969 26.0696 39.0349 26.538 38.6432C26.8239 38.4045 27.1391 38.1996 27.4206 37.9542C28.7827 36.7654 29.6833 35.3131 29.9558 33.5007C30.1044 32.51 30.0661 31.5261 29.868 30.5467C29.582 29.1327 29.9197 27.8876 30.9217 26.8542C32.536 25.1903 34.1796 23.5557 35.803 21.9008C37.9239 19.7394 40.0358 17.5689 42.1545 15.4052C42.508 15.0449 42.8637 14.687 43.2195 14.329C43.4266 14.1196 43.5977 13.8899 43.6788 13.6017C43.8567 12.9645 43.564 12.2103 43.0123 11.8613C42.4652 11.5168 41.774 11.5821 41.2427 12.0234C40.9612 12.2576 40.7225 12.5322 40.4659 12.7912C39.223 14.0475 37.9779 15.3016 36.7306 16.5512C34.3462 18.9401 31.9619 21.3267 29.5753 23.7133C28.0893 25.1993 26.5987 26.6853 25.1105 28.1691C24.9844 28.2952 24.8538 28.4145 24.7187 28.5293C24.2031 28.9571 23.4669 28.8805 23.0458 28.3604C22.9153 28.1983 22.8297 28.0115 22.7441 27.8246C22.0146 26.2328 21.1546 24.7175 20.1369 23.29C19.2588 22.0584 18.169 21.0475 16.9307 20.1852C16.0166 19.5502 14.7197 19.6696 13.9474 20.2167C13.8709 20.2707 13.7966 20.327 13.7313 20.3923C13.5377 20.5859 13.3958 20.971 13.603 21.3222C13.684 21.4595 13.7628 21.5969 13.8484 21.7297C14.5486 22.8127 15.2623 23.8867 15.949 24.9764C16.7236 26.2102 17.2774 27.5409 17.6219 28.9594C17.9101 30.1459 18.0385 31.3505 18.0159 32.5708C17.9912 33.8226 17.9597 35.0767 17.9484 36.3286C17.9416 37.3193 17.8854 38.3099 17.8381 39.2983C17.8088 39.8927 17.6219 40.4511 17.372 40.9892C17.1153 41.5476 16.7596 42.0362 16.3273 42.4685C15.3884 43.4074 14.4518 44.3485 13.5129 45.2851C13.4071 45.391 13.2968 45.4923 13.1752 45.5801C12.5447 46.0417 11.6824 45.8165 11.3559 45.1095C11.1398 44.6412 11.1848 44.2044 11.5113 43.7991C11.6824 43.5875 11.876 43.3984 12.0674 43.207C12.9433 42.3379 13.8281 41.4778 14.6792 40.5862C14.9876 40.262 15.2083 39.886 15.2939 39.4424C15.3276 39.2601 15.3501 39.0709 15.3501 38.8863C15.3546 37.4363 15.4132 35.9886 15.4425 34.5409C15.4582 33.6808 15.4852 32.8207 15.4897 31.9606C15.5032 30.0041 14.9854 28.1983 13.9925 26.5232C13.4071 25.5348 12.7541 24.5891 12.135 23.621C11.9031 23.2585 11.6689 22.8983 11.4528 22.529C11.1578 22.0359 10.9934 21.4956 11.0002 20.9282C11.0137 19.7979 11.482 18.877 12.4097 18.2308C13.4093 17.5374 14.5261 17.1749 15.7577 17.2424C16.6132 17.2897 17.417 17.5284 18.1353 17.9899C19.225 18.6879 20.2359 19.4917 21.087 20.4711C21.9449 21.4595 22.7194 22.5132 23.3858 23.6435C23.6808 24.1411 23.9712 24.6409 24.2369 25.1565C24.2842 25.2466 24.3225 25.3457 24.4305 25.42C24.5296 25.3186 24.6309 25.2151 24.7322 25.1115C29.2848 20.5567 33.8396 16.0018 38.3922 11.447C38.775 11.0643 39.1532 10.6725 39.545 10.2987C40.324 9.55573 41.2629 9.18198 42.3324 9.17297C43.1182 9.16397 43.8499 9.40488 44.4916 9.84393C45.883 10.7963 46.4617 12.154 46.2996 13.8111C46.2163 14.6599 45.8245 15.4007 45.2166 16.0063C44.0863 17.1366 42.9471 18.2579 41.8145 19.3836C41.4903 19.7056 41.1684 20.0321 40.8441 20.3563C40.8869 20.4644 40.9995 20.4869 41.085 20.5342C42.3414 21.2006 43.0461 22.2453 43.2443 23.648C43.287 23.9475 43.2938 24.2424 43.287 24.5419C43.2825 24.7175 43.2825 24.7152 43.4717 24.7715C44.1111 24.9629 44.7213 25.2173 45.2211 25.6766C45.8988 26.2958 46.3153 27.0613 46.4842 27.9642C46.5495 28.3154 46.5653 28.6689 46.5382 29.0246C46.5247 29.2093 46.527 29.2115 46.7229 29.2611C47.0223 29.3376 47.3173 29.4232 47.5987 29.5515C48.8618 30.1346 49.6093 31.1478 49.902 32.4762C50.2127 33.8902 49.7692 35.124 48.7898 36.1507C47.8351 37.1526 46.8422 38.114 45.8605 39.0912C45.6151 39.3344 45.3539 39.564 45.05 39.7329C44.8136 39.8635 44.6402 40.0346 44.5029 40.271C43.9557 41.2076 43.296 42.07 42.6431 42.9346C41.6952 44.1864 40.6933 45.3977 39.6216 46.546C38.73 47.5029 37.8474 48.471 36.9062 49.3784C35.8165 50.4276 34.5804 51.2472 33.1372 51.7335C32.2478 52.033 31.3337 52.2086 30.3948 52.2288C29.4469 52.2514 28.5148 52.1298 27.5984 51.8844C27.4363 51.8416 27.3035 51.8213 27.1706 51.9699C26.3376 52.893 25.4257 53.7419 24.5566 54.629C24.2752 54.9149 23.9892 55.1986 23.7055 55.4823C23.4151 55.7727 23.0819 55.9303 22.6541 55.9168C21.9696 55.8943 21.5396 55.3134 21.49 54.764C21.4518 54.352 21.6116 54.0165 21.8908 53.7284C22.1497 53.4582 22.4109 53.1902 22.6743 52.9268C23.7033 51.8934 24.7345 50.8622 25.7657 49.831C25.858 49.7387 25.9571 49.6531 26.0539 49.5653C26.4389 49.2186 26.8802 49.1217 27.38 49.2523C27.8573 49.3784 28.3369 49.5045 28.8278 49.581C30.5704 49.8535 32.2343 49.6599 33.7541 48.6962C34.2359 48.39 34.6705 48.0185 35.078 47.6177C37.0908 45.6454 38.9393 43.529 40.6775 41.3135C40.9252 40.9982 41.1684 40.6763 41.4138 40.3588C41.4701 40.2845 41.5308 40.2125 41.5579 40.0909L41.5466 40.0999ZM32.3019 29.5808C32.3019 29.6078 32.3019 29.6461 32.3019 29.6821C32.3266 30.5287 33.0043 31.1726 33.8487 31.1591C34.3102 31.1523 34.6592 30.9317 34.9722 30.612C35.8773 29.6933 36.7846 28.7792 37.6988 27.8696C38.5071 27.0658 39.2883 26.235 40.1372 25.474C40.27 25.3547 40.3871 25.2218 40.4929 25.0777C40.9184 24.5013 40.8802 23.8169 40.4704 23.254C39.9143 22.4907 38.9101 22.4772 38.2909 22.9996C38.1333 23.1324 37.9802 23.2698 37.8338 23.4139C36.2285 25.0192 34.6254 26.6268 33.0246 28.2344C32.8873 28.374 32.7522 28.5158 32.6283 28.6689C32.4144 28.9278 32.2906 29.225 32.3019 29.5785V29.5808ZM44.0818 28.6599C44.0638 28.2591 43.9017 27.8313 43.4942 27.5364C42.938 27.1356 42.0802 27.1086 41.5241 27.6174C41.38 27.7503 41.2314 27.8786 41.0963 28.0205C39.9097 29.2678 38.7007 30.4881 37.4601 31.6792C37.3115 31.821 37.1719 31.9741 37.0638 32.1498C36.7531 32.6518 36.7644 33.3273 37.1089 33.7889C37.4984 34.3112 38.014 34.5499 38.6714 34.4328C39.0497 34.3653 39.3379 34.1514 39.59 33.8789C40.5042 32.8905 41.4813 31.9629 42.4247 31.0037C42.7782 30.6435 43.1407 30.2923 43.5122 29.9523C43.8634 29.6303 44.0841 29.2408 44.0841 28.6576L44.0818 28.6599ZM45.8335 31.7625C45.4688 31.7332 45.1175 31.9021 44.8136 32.1903C44.7122 32.2871 44.6109 32.3839 44.5141 32.4852C43.7869 33.2485 43.0461 34.0005 42.2919 34.7368C42.0915 34.9326 41.8843 35.1218 41.6975 35.3289C41.3552 35.7139 41.2066 36.1642 41.3305 36.6753C41.5016 37.371 42.0712 37.8371 42.7467 37.8529C43.215 37.8641 43.6067 37.72 43.9355 37.3981C44.2349 37.1031 44.5254 36.7992 44.8226 36.502C45.5408 35.7815 46.2635 35.0655 46.9818 34.345C47.3578 33.969 47.4996 33.5277 47.3893 32.9918C47.2317 32.2173 46.6868 31.7512 45.8313 31.7625H45.8335Z" fill="white"/>
<path d="M22.3298 8.46375C22.3298 7.9504 22.3298 7.4348 22.3298 6.92145C22.3298 6.7706 22.3456 6.62425 22.3681 6.47565C22.4424 5.94429 22.886 5.56379 23.3565 5.45121C23.8339 5.33863 24.3967 5.57054 24.6782 6.0321C24.8223 6.26851 24.8966 6.52969 24.8966 6.80438C24.9011 7.90762 24.9056 9.01087 24.8966 10.1141C24.8921 10.5104 24.7367 10.8526 24.4418 11.1341C23.7776 11.769 22.6113 11.4042 22.3884 10.5081C22.3501 10.355 22.3321 10.1974 22.3321 10.0353C22.3343 9.51071 22.3321 8.98835 22.3321 8.46375H22.3298Z" fill="white"/>
<path d="M29.0732 13.7256C28.6161 13.7166 28.2604 13.5184 28.0465 13.1131C27.8123 12.6718 27.792 12.2193 28.0802 11.7847C28.141 11.6924 28.2176 11.6069 28.2964 11.5281C29.0754 10.7468 29.8544 9.96777 30.6335 9.18874C30.8001 9.02213 30.9802 8.88479 31.2076 8.80148C31.7412 8.60785 32.3469 8.83525 32.6216 9.25179C32.9165 9.69984 32.9548 10.31 32.5743 10.7648C32.4842 10.8729 32.3874 10.9719 32.2883 11.071C31.6084 11.7532 30.9284 12.4332 30.2484 13.1154C30.1561 13.2077 30.0571 13.2955 29.9648 13.3856C29.7171 13.631 29.4154 13.7278 29.0732 13.7233V13.7256Z" fill="white"/>
<path d="M18.0453 13.7189C17.7908 13.7279 17.5522 13.6581 17.3518 13.4892C17.237 13.3924 17.1221 13.2978 17.0163 13.192C16.3431 12.5188 15.6744 11.8411 15.0012 11.1656C14.8571 11.0193 14.713 10.8729 14.5959 10.7018C14.0353 9.87101 14.5149 9.01994 15.2016 8.81055C15.6744 8.66645 16.1067 8.7385 16.467 9.09874C17.264 9.89803 18.061 10.6996 18.8581 11.5034C19.0787 11.7263 19.2453 11.9829 19.2949 12.3004C19.4232 13.1425 18.732 13.7549 18.0475 13.7211L18.0453 13.7189Z" fill="white"/>
</svg>
