<svg width="64" height="65" viewBox="0 0 64 65" fill="none" xmlns="http://www.w3.org/2000/svg">
<g clip-path="url(#clip0_6063_4646)">
<path d="M63.3259 13.5495L50.8264 1.04925C50.4748 0.6975 49.9977 0.5 49.5005 0.5H20.75C17.6484 0.5 15.125 3.02338 15.125 6.125V30.8547C6.69925 31.7905 0.125 38.9539 0.125 47.625C0.125 56.9299 7.69512 64.5 17 64.5H58.25C61.3516 64.5 63.875 61.9766 63.875 58.875V14.8754C63.875 14.378 63.6775 13.9013 63.3259 13.5495ZM51.375 6.90163L55.4487 10.9755L57.4733 13H51.375V6.90163ZM3.875 47.625C3.875 40.3879 9.76287 34.5 17 34.5C24.2371 34.5 30.125 40.3879 30.125 47.625C30.125 54.8621 24.2371 60.75 17 60.75C9.76287 60.75 3.875 54.8621 3.875 47.625ZM58.25 60.75H27.5936C30.964 58.0244 33.2673 54.0301 33.7704 49.5H53.25C54.2855 49.5 55.125 48.6605 55.125 47.625C55.125 46.5895 54.2855 45.75 53.25 45.75H33.7702C33.4645 42.9975 32.4948 40.4426 31.0243 38.25H53.25C54.2855 38.25 55.125 37.4105 55.125 36.375C55.125 35.3395 54.2855 34.5 53.25 34.5H27.5936C25.1535 32.5267 22.1548 31.219 18.875 30.8547V6.125C18.875 5.09113 19.7161 4.25 20.75 4.25H47.625V14.875C47.625 15.9105 48.4645 16.75 49.5 16.75H60.125V58.875C60.125 59.9089 59.2839 60.75 58.25 60.75Z" fill="#0073E6"/>
<path d="M53.25 23.25H25.75C24.7145 23.25 23.875 24.0895 23.875 25.125C23.875 26.1605 24.7145 27 25.75 27H53.25C54.2855 27 55.125 26.1605 55.125 25.125C55.125 24.0895 54.2855 23.25 53.25 23.25Z" fill="#0073E6"/>
<path d="M24.4507 42.9242C23.7186 42.1921 22.5313 42.1921 21.7991 42.9242L14.3749 50.3484L11.9507 47.9241C11.2186 47.192 10.0313 47.192 9.29907 47.9241C8.56682 48.6562 8.56682 49.8435 9.29907 50.5757L13.0491 54.3257C13.4152 54.6919 13.8951 54.875 14.3749 54.875C14.8548 54.875 15.3347 54.6919 15.7007 54.3257L24.4507 45.5757C25.1829 44.8436 25.1829 43.6564 24.4507 42.9242Z" fill="#0073E6"/>
</g>
<defs>
<clipPath id="clip0_6063_4646">
<rect width="64" height="64" fill="white" transform="translate(0 0.5)"/>
</clipPath>
</defs>
</svg>
