<svg width="61" height="61" viewBox="0 0 61 61" fill="none" xmlns="http://www.w3.org/2000/svg">
<mask id="mask0_6063_3968" style="mask-type:luminance" maskUnits="userSpaceOnUse" x="0" y="0" width="61" height="61">
<path fill-rule="evenodd" clip-rule="evenodd" d="M36.8281 1.67187C36.8281 1.02465 36.3034 0.5 35.6562 0.5C35.009 0.5 34.4844 1.02465 34.4844 1.67187V3.66406C34.4844 4.31128 35.0091 4.83593 35.6562 4.83593C36.3034 4.83593 36.8281 4.31128 36.8281 3.66406V1.67187ZM25.3074 3.42734C25.5253 3.20937 25.8276 3.08398 26.1358 3.08398C26.4441 3.08398 26.7464 3.20937 26.9643 3.42734C27.1823 3.64531 27.3077 3.94765 27.3077 4.25585C27.3077 4.56523 27.1824 4.8664 26.9643 5.08437C26.7464 5.30233 26.4441 5.42772 26.1358 5.42772C25.8276 5.42772 25.5253 5.30233 25.3074 5.08437C25.0895 4.8664 24.9639 4.56405 24.9639 4.25585C24.9639 3.94765 25.0895 3.64648 25.3074 3.42734ZM27.3076 8.50776C27.3076 7.86053 26.7828 7.33588 26.1357 7.33588C25.4885 7.33588 24.9638 7.86065 24.9638 8.50776V13.156C24.9638 13.8032 25.4886 14.3279 26.1357 14.3279C26.7828 14.3279 27.3076 13.8032 27.3076 13.156V8.50776ZM6.21172 30.1388L3.48957 30.4797C1.78519 30.6929 0.5 32.1492 0.5 33.8668V39.7751C0.5 41.4928 1.78531 42.9491 3.48969 43.1624L5.92567 43.4674C6.98832 46.4325 8.78387 49.0721 11.1632 51.1647V57.1019C11.1632 58.9756 12.6876 60.5 14.5612 60.5H21.3589C23.2326 60.5 24.757 58.9756 24.757 57.1019V55.8051H32.2586V57.1019C32.2586 58.9756 33.783 60.5 35.6567 60.5H42.4544C44.328 60.5 45.8524 58.9756 45.8524 57.1019V53.2104C51.5077 49.8594 54.9922 43.7794 54.9922 37.176C54.9922 36.4257 54.9464 35.6862 54.8596 34.9589H55.2852C58.1606 34.9589 60.5 32.6196 60.5 29.7441C60.5 26.8685 58.1606 24.5292 55.2852 24.5292C54.638 24.5292 54.1133 25.0539 54.1133 25.7011C54.1133 26.3483 54.638 26.873 55.2852 26.873C56.8684 26.873 58.1562 28.161 58.1562 29.7441C58.1562 31.3272 56.8684 32.6152 55.2852 32.6152H54.4265C52.3869 24.5406 45.0621 18.5468 36.363 18.5468H34.8945C34.2474 18.5468 33.7227 19.0715 33.7227 19.7187C33.7227 20.3659 34.2474 20.8906 34.8945 20.8906H36.363C45.3428 20.8906 52.6484 28.1962 52.6484 37.176C52.6484 43.1546 49.3809 48.6426 44.1213 51.4983C43.7437 51.7032 43.5085 52.0984 43.5085 52.5281V57.1018C43.5085 57.6832 43.0355 58.1561 42.4543 58.1561H35.6565C35.0751 58.1561 34.6021 57.6832 34.6021 57.1018V54.6331C34.6021 53.9859 34.0774 53.4613 33.4303 53.4613H23.5849C22.9378 53.4613 22.413 53.9859 22.413 54.6331V57.1018C22.413 57.6832 21.94 58.1561 21.3587 58.1561H14.561C13.9797 58.1561 13.5068 57.6832 13.5068 57.1018V50.6244C13.5068 50.2755 13.3512 49.9447 13.0825 49.722C10.6447 47.7022 8.85969 45.0478 7.92019 42.046C7.78308 41.6079 7.40281 41.2902 6.9473 41.2332L3.78054 40.8368C3.24641 40.7699 2.84351 40.3134 2.84351 39.7751V33.8668C2.84351 33.3285 3.24629 32.872 3.78054 32.8051L7.19797 32.3773C7.63438 32.3227 8.00363 32.0281 8.15375 31.6146C8.93773 29.457 10.1463 27.5316 11.6752 25.9268C11.7875 25.8464 11.883 25.7471 11.9597 25.6348C14.0571 23.5415 16.718 22.033 19.7011 21.3275C20.3309 21.1785 20.7207 20.5472 20.5718 19.9173C20.4228 19.2873 19.7915 18.8977 19.1616 19.0466C18.2884 19.2532 17.4321 19.5259 16.5991 19.857C15.4214 16.7909 12.4271 14.7005 9.10473 14.7005H9.10062L8.84457 14.7006C8.48656 14.7009 8.14824 14.8647 7.92606 15.1455C7.70387 15.4263 7.6223 15.7932 7.70457 16.1417L9.70602 24.6207C8.22828 26.2411 7.0393 28.114 6.21172 30.1388ZM14.4695 20.8633C13.4846 21.4073 12.5483 22.0408 11.6741 22.7559L10.3595 17.1865C12.2428 17.6187 13.822 19.0029 14.4695 20.8633ZM13.8512 30.2574C14.069 30.0394 14.3714 29.914 14.6796 29.914C14.9878 29.914 15.2901 30.0394 15.5081 30.2574C15.7261 30.4753 15.8514 30.7777 15.8514 31.0859C15.8514 31.3941 15.7262 31.6964 15.5081 31.9144C15.29 32.1324 14.9878 32.2577 14.6796 32.2577C14.3714 32.2577 14.069 32.1324 13.8512 31.9144C13.6332 31.6964 13.5077 31.3941 13.5077 31.0859C13.5077 30.7777 13.6332 30.4753 13.8512 30.2574ZM47.1479 37.176C47.1479 36.5288 47.6727 36.0041 48.3198 36.0041C48.9669 36.0041 49.4916 36.5288 49.4916 37.176L49.4915 37.2382C49.4875 37.8829 48.9636 38.4028 48.3198 38.4028H48.3124C47.6653 38.3987 47.1438 37.8708 47.1478 37.2236L47.1479 37.176ZM46.4379 41.0334C45.5878 43.2521 43.9977 45.1568 41.9606 46.3965C41.4078 46.733 41.2321 47.4539 41.5686 48.0068C41.7893 48.3694 42.1754 48.5696 42.5709 48.5696C42.7784 48.5696 42.9886 48.5144 43.1789 48.3987C45.657 46.8907 47.5917 44.5728 48.6264 41.872C48.858 41.2676 48.5558 40.59 47.9514 40.3584C47.3472 40.1266 46.6695 40.4289 46.4379 41.0334ZM40.5781 11.0529C40.5781 8.33901 38.3702 6.13108 35.6562 6.13108C32.9423 6.13108 30.7344 8.33901 30.7344 11.0529C30.7344 13.7669 32.9423 15.9748 35.6562 15.9748C38.3702 15.9748 40.5781 13.7669 40.5781 11.0529ZM38.2344 11.0529C38.2344 12.4745 37.0779 13.6311 35.6562 13.6311C34.2346 13.6311 33.0781 12.4745 33.0781 11.0529C33.0781 9.63135 34.2346 8.47483 35.6562 8.47483C37.0779 8.47483 38.2344 9.63135 38.2344 11.0529ZM20.8906 25.3437H21.9453C21.482 24.5933 21.2138 23.7103 21.2138 22.7656C21.2138 20.0516 23.4218 17.8437 26.1357 17.8437C28.8496 17.8437 31.0576 20.0516 31.0576 22.7656C31.0577 23.7103 30.7896 24.5933 30.3262 25.3437H36.125C36.7721 25.3437 37.2969 25.8683 37.2969 26.5156C37.2969 27.1628 36.7721 27.6874 36.125 27.6874H20.8906C20.2435 27.6874 19.7188 27.1628 19.7188 26.5156C19.7188 25.8683 20.2434 25.3437 20.8906 25.3437ZM26.1357 25.3437C27.5573 25.3437 28.7138 24.1872 28.7138 22.7656C28.7138 21.344 27.5573 20.1875 26.1357 20.1875C24.7141 20.1875 23.5576 21.344 23.5576 22.7656C23.5576 24.1872 24.7142 25.3437 26.1357 25.3437Z" fill="white"/>
</mask>
<g mask="url(#mask0_6063_3968)">
<rect x="-14.6394" y="-14.6172" width="93.75" height="93.75" fill="white"/>
</g>
</svg>
