<svg width="64" height="65" viewBox="0 0 64 65" fill="none" xmlns="http://www.w3.org/2000/svg">
<path d="M58.3111 14.3667H14.2222C11.0933 14.3667 8.53333 16.8774 8.53333 19.9462V22.0385C8.53333 22.8056 9.17333 23.4333 9.95556 23.4333C10.7378 23.4333 11.3778 22.8056 11.3778 22.0385V19.9462C11.3778 19.6672 11.4489 19.3882 11.52 19.1092L27.4489 32.5L11.52 45.8908C11.4489 45.6118 11.3778 45.3328 11.3778 45.0539V42.9615C11.3778 42.1944 10.7378 41.5667 9.95556 41.5667C9.17333 41.5667 8.53333 42.1944 8.53333 42.9615V45.0539C8.53333 48.1226 11.0933 50.6333 14.2222 50.6333H58.3111C61.44 50.6333 64 48.1226 64 45.0539V19.9462C64 16.8774 61.44 14.3667 58.3111 14.3667ZM13.6533 17.2262C13.7956 17.1564 14.0089 17.1564 14.2222 17.1564H58.3111C58.5244 17.1564 58.7378 17.1564 58.88 17.2262L37.1911 35.4292C36.6222 35.8477 35.9111 35.8477 35.3422 35.4292L13.6533 17.2262ZM58.3111 47.8436H14.2222C14.0089 47.8436 13.7956 47.8436 13.6533 47.7739L29.6533 34.3133L33.4933 37.5913C34.2756 38.2887 35.2711 38.6374 36.2667 38.6374C37.2622 38.6374 38.2578 38.2887 39.04 37.5913L42.88 34.3133L58.88 47.7739C58.7378 47.8436 58.5244 47.8436 58.3111 47.8436ZM61.1556 45.0539C61.1556 45.3328 61.0844 45.6118 61.0133 45.8908L45.0844 32.5L61.0133 19.1092C61.0844 19.3882 61.1556 19.6672 61.1556 19.9462V45.0539ZM4.26667 29.0128C4.26667 28.2456 4.90667 27.618 5.68889 27.618H14.2222C15.0044 27.618 15.6444 28.2456 15.6444 29.0128C15.6444 29.78 15.0044 30.4077 14.2222 30.4077H5.68889C4.90667 30.4077 4.26667 29.78 4.26667 29.0128ZM14.2222 37.3821H1.42222C0.64 37.3821 0 36.7544 0 35.9872C0 35.22 0.64 34.5923 1.42222 34.5923H14.2222C15.0044 34.5923 15.6444 35.22 15.6444 35.9872C15.6444 36.7544 15.0044 37.3821 14.2222 37.3821Z" fill="#0073E6"/>
</svg>
