<svg width="61" height="61" viewBox="0 0 61 61" fill="none" xmlns="http://www.w3.org/2000/svg">
<path d="M30.9254 23.7048C31.008 23.722 31.0953 23.7377 31.1937 23.7502C31.4795 23.7863 31.762 23.7941 32.0335 23.8019C32.1113 23.8035 32.1875 23.8066 32.2653 23.8082C32.3081 23.8082 32.3494 23.8113 32.3923 23.8145C32.4923 23.8192 32.5955 23.8239 32.7034 23.8223C33.1193 23.8145 33.4956 23.8051 33.8766 23.7612L34.9576 23.6374C35.0481 23.6264 35.1402 23.6154 35.2307 23.606C35.2466 23.6232 35.264 23.6421 35.2799 23.6609C35.3259 23.7142 35.3799 23.7737 35.445 23.8317C35.6942 24.0543 35.9736 24.2691 36.2737 24.4666L36.388 24.5418C36.7134 24.7581 37.0499 24.9807 37.4262 25.1563C37.5214 25.2001 37.6167 25.2472 37.7103 25.2942C37.8294 25.3538 37.9485 25.4118 38.0691 25.4666C38.212 25.5309 38.3564 25.5857 38.4961 25.6375L38.5803 25.6688C38.8422 25.7676 39.1041 25.8444 39.3613 25.8945C39.4423 25.9102 39.5232 25.9212 39.6058 25.9322C39.6598 25.94 39.7121 25.9463 39.7661 25.9557C40.0789 26.0105 40.4043 26.0372 40.7678 26.0372C40.9504 26.0372 41.1409 26.0309 41.3441 26.0168C41.9092 25.9792 42.4902 25.8601 43.0713 25.6641C43.2316 25.6093 43.403 25.5497 43.5713 25.476C43.8158 25.3694 44.0269 25.2691 44.2174 25.1688C44.3809 25.0826 44.5508 24.9823 44.7397 24.8584C44.8572 24.7816 44.9683 24.6985 45.0762 24.6202C45.1223 24.5857 45.1683 24.5528 45.2144 24.5183C45.3906 24.3913 45.6207 24.2205 45.8478 24.0261C46.3875 23.5621 46.8923 23.0448 47.386 22.4429C47.7242 22.0338 48.0544 21.5996 48.3703 21.156C48.4195 21.0855 48.4703 21.0165 48.5211 20.9475C48.6497 20.7735 48.783 20.5933 48.8989 20.3942L49.1132 20.0305C49.3227 19.6747 49.5402 19.3064 49.7434 18.9364C50.107 18.2749 50.4022 17.7122 50.6642 17.1228L50.8436 16.7184C50.9801 16.4112 51.1166 16.1055 51.2499 15.7967C51.3309 15.6086 51.4103 15.419 51.4897 15.2309C51.569 15.0428 51.6468 14.8547 51.7278 14.6666C51.8722 14.3343 52.0373 13.9361 52.1659 13.5207C52.2151 13.3593 52.2659 13.1994 52.3167 13.0379L52.4548 12.5975C52.4945 12.4705 52.5342 12.3435 52.5691 12.215C52.6358 11.9736 52.612 11.7244 52.5041 11.4971C52.4183 11.3153 52.2834 11.1946 52.1516 11.0911C52.0564 11.0159 51.9437 10.9657 51.8167 10.9438C51.6135 10.9061 51.4055 10.9203 51.1801 10.983C51.0642 11.0159 50.9499 11.0519 50.834 11.0864C50.7293 11.1178 50.6261 11.1507 50.5213 11.1805C50.0832 11.3059 49.7149 11.403 49.3418 11.4595C49.2608 11.472 49.1799 11.4846 49.1005 11.4971L48.6433 11.5692C48.3258 11.6194 48.0274 11.6664 47.7242 11.6915L47.4575 11.7134C47.2273 11.7322 46.9955 11.751 46.7653 11.7714C46.451 11.7996 46.1081 11.8137 45.7208 11.8169C45.2128 11.82 44.6762 11.809 44.0777 11.7824C43.4507 11.7542 42.7426 11.7228 42.0378 11.7228C41.1202 11.7244 40.2217 11.8404 39.3661 12.0677C38.9248 12.1852 38.5342 12.3153 38.1723 12.4658C38.0183 12.5301 37.8357 12.6084 37.6579 12.6994C37.5484 12.7558 37.4484 12.8169 37.3516 12.8765C37.3119 12.9 37.2738 12.9251 37.2341 12.9486C37.0214 13.0756 36.8198 13.2151 36.6372 13.364C36.2816 13.654 35.9752 13.9471 35.7006 14.2606C35.399 14.6054 35.1577 14.933 34.964 15.2638C34.7195 15.6839 34.5163 16.1322 34.3449 16.6353C34.302 16.7623 34.256 16.8987 34.2211 17.0429C34.1353 17.3846 34.0528 17.7201 34.0036 18.068C33.9829 18.2122 33.9607 18.4286 34.002 18.6574C34.0321 18.8314 34.1052 18.9819 34.2195 19.1057C34.3385 19.2358 34.4878 19.3346 34.6608 19.3988C35.0831 19.5556 35.6577 19.4177 35.8911 18.9161C35.9403 18.8095 35.98 18.6919 36.0086 18.5681C36.0355 18.4442 36.0609 18.3204 36.0848 18.1966C36.1038 18.0978 36.1244 17.9991 36.1451 17.8987C36.2118 17.5884 36.2784 17.3548 36.3626 17.1448C36.4959 16.8062 36.6721 16.4614 36.9182 16.0601C37.1023 15.7591 37.3071 15.513 37.5436 15.3092C37.6548 15.2136 37.777 15.1243 37.9119 15.0255C38.0485 14.9268 38.2072 14.8123 38.366 14.7105C38.6295 14.5412 38.9152 14.3954 39.2359 14.2637C39.6423 14.0976 40.0709 13.9769 40.5456 13.8954C40.7758 13.8562 41.0107 13.8405 41.2599 13.8233L41.3584 13.817C41.8171 13.7856 42.2696 13.7778 42.6998 13.7935C42.8982 13.8013 43.0982 13.8107 43.2967 13.8201L43.6205 13.8358C43.6808 13.8389 43.7412 13.8421 43.8015 13.8452C43.9491 13.853 44.0999 13.8624 44.2555 13.8624H44.2682C44.4222 13.8624 44.5762 13.8624 44.7302 13.864C45.0588 13.8656 45.3969 13.8687 45.735 13.8562C45.9224 13.8483 46.1097 13.8436 46.297 13.8389C46.5907 13.8311 46.8939 13.8233 47.1939 13.806C47.5845 13.7841 47.994 13.7433 48.4846 13.6775C49.0608 13.5991 49.5355 13.5192 49.9752 13.4267C49.9308 13.5458 49.8863 13.6665 49.8419 13.7856C49.7704 13.9769 49.7006 14.1665 49.626 14.3562C49.4005 14.9362 49.1323 15.5616 48.8068 16.267C48.5147 16.9018 48.1861 17.5429 47.8004 18.2279C47.4987 18.7624 47.2051 19.2327 46.9018 19.6653C46.8288 19.7688 46.7542 19.8691 46.678 19.9694C46.5955 20.0791 46.5129 20.1904 46.4335 20.3033C46.2319 20.5917 46.0113 20.8801 45.7573 21.1874C45.3731 21.6513 44.9604 22.0746 44.5333 22.4461C44.3412 22.6138 44.1301 22.7799 43.8904 22.9555C43.638 23.1405 43.3538 23.2894 43.049 23.4477L42.9951 23.4759C42.9363 23.5072 42.8823 23.5355 42.8284 23.5574C42.6506 23.6295 42.4823 23.6985 42.3124 23.7549C41.9759 23.8678 41.6647 23.9305 41.3615 23.9509C40.9885 23.9744 40.5884 23.9524 40.1424 23.885C39.8645 23.8427 39.5804 23.7643 39.3343 23.6922C39.12 23.6311 38.8914 23.5402 38.6041 23.4038C38.3041 23.2612 38.0183 23.1248 37.75 22.9649C37.8215 22.9382 37.8913 22.9132 37.9627 22.8865C38.0897 22.8411 38.2183 22.7956 38.3453 22.7501C38.5358 22.6827 38.7263 22.6169 38.9152 22.5464C39.0914 22.4805 39.2645 22.4084 39.4312 22.3395L39.5883 22.2736C39.7455 22.2094 39.9011 22.1435 40.055 22.073C40.2757 21.9711 40.4884 21.8692 40.6869 21.7689L40.7869 21.7187C41.0171 21.6027 41.2552 21.4836 41.4869 21.3535C41.8076 21.1717 42.1489 20.9757 42.4791 20.7532C42.5585 20.6999 42.641 20.6497 42.7236 20.5995C42.7934 20.5572 42.8649 20.5149 42.9331 20.4694C43.1109 20.3534 43.2887 20.2359 43.4634 20.1168C43.5967 20.0258 43.7285 19.9302 43.8602 19.8346C44.0126 19.7233 44.1634 19.6105 44.3127 19.4976L44.365 19.4584C44.4428 19.4004 44.5222 19.3408 44.6016 19.2719C44.7191 19.1684 44.8397 19.0571 44.9921 18.9098C45.1382 18.7687 45.2413 18.6355 45.316 18.4913C45.4826 18.1699 45.4493 17.8987 45.3921 17.7279C45.2429 17.2812 44.746 16.9818 44.265 17.0413C44.1015 17.0617 43.9587 17.1181 43.8428 17.2091C43.6872 17.3313 43.53 17.4536 43.3745 17.5758C43.3173 17.6213 43.2586 17.6683 43.2014 17.7138C43.1236 17.7765 43.0474 17.8392 42.9681 17.9003C42.8331 18.0053 42.6966 18.1072 42.5585 18.2091L42.5394 18.2232C42.3791 18.3408 42.2267 18.4521 42.0664 18.5399C41.9743 18.5916 41.8822 18.6449 41.7917 18.6997L41.6981 18.7562C41.5409 18.8487 41.3854 18.9427 41.2282 19.0352C40.7964 19.2938 40.3503 19.5603 39.9026 19.7954C39.736 19.8832 39.5677 19.9663 39.3994 20.0478C39.1311 20.1779 38.8628 20.3049 38.593 20.4303L38.5755 20.4381C38.4311 20.5055 38.2961 20.5682 38.158 20.6231C37.9104 20.7202 37.65 20.819 37.3833 20.913C36.8483 21.1043 36.3086 21.2642 35.7768 21.3864C35.0815 21.5479 34.437 21.6529 33.8051 21.7109C33.2384 21.7626 32.7717 21.7799 32.3383 21.7626C32.1764 21.7564 32.0145 21.7485 31.8525 21.7407C31.6811 21.7313 31.5081 21.7234 31.335 21.7172C31.2128 21.7125 31.0842 21.7172 30.927 21.7328C30.7603 21.7485 30.6064 21.8175 30.4683 21.9382C30.2428 22.1341 30.1238 22.399 30.1142 22.7219C30.1079 22.9288 30.165 23.1201 30.2793 23.2784C30.4381 23.4978 30.6619 23.6436 30.9254 23.7001V23.7048Z" fill="white"/>
<path d="M56.968 33.9782C56.8712 33.2979 56.5791 32.7195 56.0425 32.2884C55.3837 31.7617 54.609 31.5 53.7597 31.4827C53.5296 31.478 53.2994 31.5 53.0708 31.5219C52.6818 31.5595 52.3056 31.6567 51.9389 31.7821C51.2404 32.0204 50.5848 32.3574 49.9244 32.6787C49.1973 33.033 48.4687 33.381 47.74 33.729L44.8032 35.2087C44.0825 35.5723 43.3649 35.9438 42.6458 36.3122C42.5521 36.3592 42.4569 36.4047 42.3616 36.4486C42.2616 36.4956 42.2283 36.4862 42.1727 36.3843C42.114 36.2746 42.06 36.1633 42.0076 36.052C41.8457 35.7118 41.6235 35.4187 41.3377 35.1679C41.279 35.1162 41.2218 35.0613 41.1694 35.0033C40.8758 34.682 40.5297 34.4234 40.163 34.1914C39.8741 34.0095 39.5899 33.8199 39.2915 33.6553C38.9581 33.4703 38.6168 33.301 38.2707 33.1411C37.8183 32.9311 37.3579 32.7352 36.8991 32.5392C36.7182 32.4624 36.5324 32.395 36.3483 32.3276C35.6434 32.0721 34.937 31.8182 34.2322 31.5627C33.9353 31.4545 33.64 31.3432 33.3432 31.2351C32.9971 31.1097 32.6479 30.9905 32.3034 30.8636C31.5636 30.5908 30.8223 30.3212 30.0841 30.0406C28.6442 29.4952 27.1917 28.9904 25.7249 28.5217C24.6851 28.1894 23.6326 27.8963 22.561 27.6784C22.2975 27.6251 22.0276 27.6063 21.7593 27.5828C21.5307 27.5624 21.299 27.5436 21.0704 27.5483C20.8148 27.5546 20.5592 27.5891 20.3036 27.6079C20.2084 27.6142 20.1115 27.6079 19.9925 27.6079C19.9925 27.6079 17.9335 27.8775 17.2525 28.2741C17.0636 28.3321 16.8731 28.3838 16.6889 28.4512C15.7031 28.8055 14.7443 29.2224 13.8251 29.7177C13.0901 30.1127 12.3726 30.5375 11.6645 30.978C10.5946 31.6442 9.58019 32.3935 8.56579 33.138C8.08954 33.4876 7.89905 33.9437 8.05144 34.5221C8.10066 34.7102 8.15781 34.8967 8.20702 35.0848C8.36259 35.6821 8.51499 36.2793 8.67374 36.8749C8.73406 37.1006 8.81026 37.3217 8.87058 37.5474C8.93885 37.8044 8.98965 38.0662 9.06108 38.3217C9.31349 39.2418 9.57066 40.162 9.82783 41.0821C9.87705 41.2576 9.93261 41.4301 9.97864 41.6072C10.0437 41.858 10.0961 42.1135 10.1644 42.3643C10.4073 43.2531 10.6533 44.1418 10.8978 45.0306C10.9803 45.3316 11.0581 45.6325 11.1486 45.9319C11.2153 46.1561 11.2899 46.3787 11.4598 46.5558C11.7407 46.8489 12.0694 47.0307 12.49 46.9978C12.7234 46.979 12.9345 46.8912 13.133 46.7643C13.7251 46.3865 14.2934 45.9727 14.9205 45.6513C15.6237 45.2908 16.3635 45.087 17.1556 45.087C17.5573 45.087 17.9589 45.1011 18.3605 45.1278C18.7018 45.1497 19.0432 45.1842 19.3797 45.2359C19.9131 45.3175 20.4449 45.4068 20.9719 45.5165C21.7641 45.6811 22.5547 45.8535 23.3389 46.0463C24.0358 46.2172 24.7232 46.4178 25.4137 46.6106C26.0471 46.7878 26.6805 46.968 27.3107 47.153C27.9235 47.3317 28.5315 47.5214 29.1427 47.7032C29.7793 47.8913 30.4159 48.0825 31.0556 48.2596C31.9494 48.5073 32.8431 48.7534 33.7432 48.9807C34.2083 49.0983 34.6814 49.186 35.1529 49.2707C35.4625 49.3255 35.7784 49.3491 36.0927 49.3882C36.7658 49.4713 37.4214 49.4102 38.0516 49.1578C38.6263 48.9274 39.1787 48.6531 39.7137 48.3427C40.5091 47.8819 41.3107 47.4304 42.0949 46.9524C42.7903 46.5291 43.4681 46.0793 44.1476 45.6294C45.0619 45.0243 45.97 44.4146 46.8764 43.7986C47.359 43.4709 47.8337 43.1292 48.3083 42.7922C48.8005 42.4427 49.2926 42.0947 49.7783 41.7373C50.4181 41.2686 51.0563 40.7984 51.6849 40.314C52.4279 39.7434 53.1676 39.1682 53.8931 38.5741C54.4106 38.1509 54.8964 37.6932 55.4028 37.2574C55.8298 36.8906 56.2029 36.483 56.4696 35.9893C56.6204 35.7087 56.7664 35.4234 56.8744 35.1256C57.0077 34.7557 57.0268 34.3701 56.9696 33.9735L56.968 33.9782ZM54.4884 34.4406C54.409 34.6977 54.2423 34.8983 54.0741 35.0974C53.6899 35.5551 53.2359 35.9423 52.7771 36.3232C52.2834 36.7338 51.7881 37.1398 51.2833 37.5364C50.6705 38.0176 50.053 38.4941 49.4259 38.9581C48.6306 39.5475 47.8273 40.1275 47.0209 40.6996C46.3097 41.2043 45.5874 41.6934 44.8699 42.1887C44.4651 42.4677 44.065 42.7546 43.6523 43.0226C42.8014 43.5791 41.9457 44.1293 41.0869 44.6732C40.4821 45.0557 39.8741 45.4335 39.2581 45.7971C38.766 46.0871 38.2644 46.363 37.7564 46.6248C37.5182 46.747 37.2611 46.8411 37.0023 46.9147C36.8293 46.9633 36.6372 46.979 36.4562 46.9665C35.8657 46.9257 35.2799 46.8473 34.7052 46.6937C33.7781 46.4445 32.8463 46.2141 31.9208 45.9601C31.262 45.7783 30.6111 45.5683 29.9539 45.3755C29.1268 45.1325 28.2997 44.8911 27.4727 44.6528C26.6758 44.424 25.882 44.1904 25.0803 43.9772C24.2787 43.7656 23.4754 43.5603 22.6658 43.3847C21.799 43.1951 20.9243 43.0399 20.0512 42.8769C19.7543 42.8204 19.4543 42.7781 19.1543 42.7389C18.9463 42.7123 18.7352 42.6966 18.5256 42.6903C17.9795 42.6715 17.4319 42.6292 16.8858 42.6543C15.9238 42.6982 14.9967 42.9129 14.1251 43.3299C13.8584 43.4584 13.5965 43.5932 13.3314 43.7249C13.279 43.7515 13.2235 43.7735 13.1346 43.8127C13.098 43.7327 13.0615 43.6732 13.0441 43.6073C12.9266 43.1747 12.8155 42.7405 12.6996 42.3094C12.4964 41.557 12.2916 40.8046 12.0868 40.0522C11.7868 38.955 11.4852 37.8593 11.1867 36.7636C11.0184 36.1429 10.8565 35.5206 10.6914 34.8983C10.6263 34.6491 10.6327 34.6428 10.8438 34.5002C11.3042 34.1851 11.7519 33.8544 12.2202 33.5503C12.8583 33.1364 13.5029 32.7305 14.1585 32.3449C14.6554 32.0517 15.1681 31.7806 15.6872 31.5282C16.4381 31.163 17.2049 30.8307 18.0065 30.5893C18.5463 30.4262 19.0971 30.2899 19.6512 30.1754C20.2623 30.0485 20.8846 29.9529 21.5133 29.9999C21.8006 30.0218 22.0864 30.0783 22.3689 30.1363C23.5452 30.3761 24.6835 30.7491 25.8169 31.1363C26.9313 31.5172 28.041 31.9091 29.1475 32.3104C30.1063 32.6568 31.0556 33.0283 32.0113 33.3778C33.0177 33.7462 34.0321 34.0942 35.037 34.4657C35.5672 34.6616 36.0879 34.8811 36.6086 35.1021C36.9896 35.2635 37.3722 35.425 37.7341 35.6241C38.1659 35.8608 38.585 36.121 38.9882 36.4C39.2343 36.5693 39.4581 36.7793 39.6613 36.9972C39.9598 37.317 39.9487 37.4753 39.6343 37.7715C39.482 37.9142 39.3137 38.0411 39.1375 38.154C38.712 38.4283 38.2771 38.6885 37.7675 38.7841C37.3119 38.8688 36.8531 38.886 36.3911 38.8327C35.8403 38.7685 35.2989 38.6556 34.7767 38.4753C34.1623 38.2622 33.5511 38.0349 32.9495 37.7888C31.9271 37.3718 30.9207 36.9141 29.8714 36.5646C29.2856 36.3702 28.6839 36.2197 28.0632 36.168C27.8346 36.1492 27.6044 36.1319 27.3742 36.1288C26.8361 36.1194 26.3106 36.494 26.1741 37.0944C26.0328 37.7198 26.4805 38.2528 26.9075 38.4471C27.0075 38.4926 27.1187 38.5318 27.2266 38.5349C27.8584 38.5568 28.4696 38.6728 29.0601 38.8876C29.6348 39.0961 30.2047 39.3155 30.7715 39.5444C31.435 39.8124 32.0891 40.1071 32.7542 40.372C33.5543 40.6918 34.3766 40.9583 35.2212 41.1369C35.9308 41.2874 36.6547 41.3486 37.3817 41.3015C38.0151 41.2608 38.6279 41.1181 39.2248 40.8956C39.8645 40.6573 40.4456 40.3124 41.0329 39.9801C41.6219 39.6478 42.1997 39.2967 42.7966 38.9769C43.457 38.6227 44.1317 38.2982 44.7984 37.9581C45.6525 37.5223 46.5034 37.0771 47.3606 36.6476C48.3353 36.1586 49.3148 35.6758 50.2975 35.1993C50.9531 34.8811 51.6103 34.5644 52.2755 34.2682C52.7326 34.0644 53.2089 33.9045 53.7232 33.9359C53.8788 33.9453 54.036 33.9782 54.1868 34.0221C54.2709 34.0472 54.3471 34.1099 54.417 34.1647C54.509 34.2368 54.5265 34.3262 54.49 34.4437L54.4884 34.4406Z" fill="white"/>
</svg>
